/* XPM */
static char * chat_xpm[] = {
"64 64 4 1",
" 	c None",
".	c #BFDA66",
"+	c #C0DB67",
"@	c #BED965",
"....++++++++++++++++++++++++++++++++++++++++++++++++++++        ",
"..++++++++++++++++++++++++++++++++++++++++++++++++++++++++      ",
".+++++++++++++++++++++++++++++++++++++++++++++++++++++++++++    ",
"+++++++++++++++++++++++++++++++++++++++++++++++++++++++++++++   ",
"++++++++++++++++++++++++++++++++++++++++++++++++++++++++++++++  ",
"++++++++++++++++++++++++++++++++++++++++++++++++++++++++++++++  ",
"++++++++++...+.++++++...+++++++++++++++++++++++++++++++++++++++ ",
"+++++++.+.....++++    ..     +++                       ++++++++ ",
"++++++.+.......+++   ...     +++                        ++++++++",
"+++++++...++++++++   @.@     +++                         +++++++",
"+++++++..++++++++++  ...     +++                         +++++++",
"++++++..++++++++++++ @.@     +++                         +++++++",
"++++++.+++++++++++++ ...     +++                         +++++++",
"+++++++.+++++++++++++...     +++                         +++++++",
"++++++.++++++++++..  @.@     +++                         +++++++",
"+++++++.++++++++...   ..     +++                         +++++++",
"+++++++++++++++...+.+++.     +++                         +++++++",
"++++++++++++++++++.+++++.+++++++                         +++++++",
"+++++++ ++++++  +++++++++++++++++++                      +++++++",
"+++++++ ++      ++++++++++++++++++++                     +++++++",
"+++++++         ++++++++++++++++++++++                   +++++++",
"++++++. .@..@.@++++++++++++++++++++++++                  +++++++",
"++++++..........+++++++++++++++++++++++                  +++++++",
"++++++.........+++++++++++++++++++++++++                 +++++++",
"+++++++       ++++++++++++++++++++++++++                 +++++++",
"+++++++      ++++++++++++++++++++++++++++                +++++++",
"+++++++      ++++++++++++++++++++++++++++                +++++++",
"+++++++      ++++++++++++++++++++++++++++                +++++++",
"+++++++      ++++++++++++++++++++++++++++                +++++++",
"++++++++++++++++++++++++++++++++++++                     +++++++",
"++++++++++++++++++++++++++++++++++                       +++++++",
"++++++++++++++++++++++++++++++++                         +++++++",
"+++++++        ++++++++++++++++       +++++++            +++++++",
"+++++++         ++++++++++++++     ++++++++++++          +++++++",
"+++++++         +++++++++++++     +++++++++++++++        +++++++",
"+++++++         +++++++++++++    +++++++++++++++++       +++++++",
"+++++++         +++++++++++++   ++++++++++++++++++       +++++++",
"+++++++         ++++++++++++    +++++++++++++++++++      +++++++",
"+++++++         +++++           +++++++++++++++++++      +++++++",
"+++++++        ++++             +++++++++++++++++++      +++++++",
"+++++++        ++               +++++++++++++++++++      +++++++",
"+++++++                         ++++++++++++++++++       +++++++",
"+++++++                          +++++++++++++++++       +++++++",
"+++++++                           +++++++++++++++        +++++++",
"+++++++                             +++++++++++++        +++++++",
"+++++++                               ++++++ ++++        +++++++",
"+++++++                                        ++        +++++++",
"+++++++                                         ++       +++++++",
"+++++++                                                  +++++++",
"+++++++                                                  +++++++",
"+++++++                                                  +++++++",
"+++++++                                                  +++++++",
"+++++++                                                  +++++++",
"+++++++                                                  +++++++",
"+++++++                                                  +++++++",
"++++++++                                                ++++++++",
" ++++++++                                              ++++++++ ",
" ++++++++++++++++++++++++++++++++++++++++++++++++++++++++++++++ ",
"  ++++++++++++++++++++++++++++++++++++++++++++++++++++++++++++  ",
"  ++++++++++++++++++++++++++++++++++++++++++++++++++++++++++++  ",
"   ++++++++++++++++++++++++++++++++++++++++++++++++++++++++++   ",
"    ++++++++++++++++++++++++++++++++++++++++++++++++++++++++    ",
"      ++++++++++++++++++++++++++++++++++++++++++++++++++++      ",
"        ++++++++++++++++++++++++++++++++++++++++++++++++        "};
